<?xml version="1.0" encoding="utf-8"?>
<!-- Generator: Adobe Illustrator 16.0.0, SVG Export Plug-In . SVG Version: 6.00 Build 0)  -->
<!DOCTYPE svg PUBLIC "-//W3C//DTD SVG 1.1//EN" "http://www.w3.org/Graphics/SVG/1.1/DTD/svg11.dtd">
<svg version="1.1" id="Layer_1" xmlns="http://www.w3.org/2000/svg" xmlns:xlink="http://www.w3.org/1999/xlink" x="0px" y="0px"
	 width="1792px" height="1792px" viewBox="0 0 1792 1792" enable-background="new 0 0 1792 1792" xml:space="preserve">
<path fill="#9d9d9d" stroke="#9d9d9d" d="M1408,236H384v1282l423-426l89-85l89,85l423,426V236z M1420,108c15.333,0,30,3,44,9
	c22,8.667,39.5,22.333,52.5,41s19.5,39.333,19.5,62v1329c0,22.667-6.5,43.333-19.5,62s-30.5,32.333-52.5,41
	c-12.667,5.333-27.333,8-44,8c-32,0-59.667-10.667-83-32l-441-444l-441,444c-24,22-51.667,33-83,33c-15.333,0-30-3-44-9
	c-22-8.667-39.5-22.333-52.5-41s-19.5-39.333-19.5-62V220c0-22.667,6.5-43.333,19.5-62s30.5-32.333,52.5-41c14-6,28.667-9,44-9H1420
	z"/>
</svg>
