<?xml version="1.0" standalone="no"?>
<!DOCTYPE svg PUBLIC "-//W3C//DTD SVG 1.1//EN" "http://www.w3.org/Graphics/SVG/1.1/DTD/svg11.dtd" >
<svg xmlns="http://www.w3.org/2000/svg">
<metadata></metadata>
<defs>
<font id="wunderconpictograms" horiz-adv-x="1000" >
<font-face units-per-em="1000" ascent="1000" descent="0" />
<missing-glyph horiz-adv-x="500" />
<glyph unicode="#" d="M500 850q41 0 65 -37l324 -550q22 -36 1 -75q-22 -38 -65 -38h-650q-43 0 -65 38q-21 39 1 75l323 550q24 37 66 37zM500 800q-15 0 -22 -13l-324 -549q-8 -12 -1 -25t22 -13h650q15 0 22 13t-1 25l-325 549q-6 13 -21 13zM525 600v-123q0 -26 -2 -40q0 -5 -5 -37h-36 q-5 32 -5 37q-2 28 -2 40v123h50zM469 299q-2 8 -2 12q0 5 2 13q3 9 7 11q6 6 11 7q6 3 13 3q6 0 12 -3q5 -1 11 -7q4 -2 7 -11q2 -8 2 -13q0 -4 -2 -12q-4 -8 -7 -11q-8 -5 -11 -6q-6 -3 -12 -3q-7 0 -13 3q-3 1 -11 6q-3 3 -7 11z" />
<glyph unicode="$" d="M800 500l-250 -250h-100l125 200h-325v100h325l-125 200h100z" />
<glyph unicode="%" d="M803 629q66 -26 106.5 -85.5t40.5 -131.5q0 -77 -41 -135.5t-109 -83.5v112q50 38 50 107q0 47 -28.5 83t-74.5 46l-37 9l-2 38q-2 42 -32.5 70.5t-72.5 28.5q-13 0 -28 -4l-38 -10l-19 35q-22 43 -63 67.5t-88 24.5q-71 0 -122 -50.5t-51 -121.5q0 -29 13 -63l12 -32 l-25 -23q-44 -41 -44 -98q0 -70 50 -107v-112q-68 24 -109 83t-41 136q0 82 54 147q-10 33 -10 69q0 112 80 192t193 80q65 0 123.5 -30t96.5 -83q78 7 138.5 -39t77.5 -119zM550 287l150 76v-63l-199 -200l-200 200v63l150 -76v213h99v-213z" />
<glyph unicode="," d="M800 450h-250v-250h-100v250h-250v100h250v250h100v-250h250v-100z" />
<glyph unicode="-" d="M541 353q40 -16 50 -59q9 -47 9 -144h-550q0 92 10 144q10 43 50 59q58 21 126 37q13 3 22 13.5t9 24.5q0 17 -16 28q-39 22 -53 62q-2 4 -4 12t-4 12l-10 5q-13 6 -17 18q-12 27 -13 50q-2 16 13 21l8 2q-1 5 -1 13q-1 7 -1 19q0 62 49 98q50 37 107 20q-15 22 -39 33 q20 6 39 6q65 0 111 -46t46 -111q0 -12 -1 -19q0 -2 -0.5 -6t-0.5 -6l8 -3q16 -5 14 -21q-3 -28 -13 -50q-6 -12 -17 -18l-11 -5q-1 -4 -4 -12t-4 -12q-16 -41 -53 -62q-16 -10 -16 -28q0 -14 9 -24.5t22 -13.5q68 -16 126 -37zM750 550h-200v-100h200v-150l200 201 l-200 199v-150z" />
<glyph unicode="." d="M500 550h100l-200 -300l50 200h-100l200 300z" />
<glyph unicode="/" d="M250 900h500q62 0 106 -44t44 -106v-500q0 -62 -44 -106t-106 -44h-500q-62 0 -106 44t-44 106v500q0 62 44 106t106 44zM750 800h-500q-21 0 -35.5 -14.5t-14.5 -35.5v-500q0 -21 14.5 -35.5t35.5 -14.5h500q21 0 35.5 14.5t14.5 35.5v500q0 21 -14.5 35.5t-35.5 14.5z " />
<glyph unicode="0" d="M801 500q0 -11 -2 -33q-2 -16 11 -24l76 -48q-14 -49 -39 -93l-87 19q-14 5 -25 -8q-18 -23 -47 -47q-12 -10 -9 -25l19 -88q-43 -25 -92 -38l-48 76q-8 13 -24 11q-22 -2 -33 -2q-13 0 -33 2q-16 2 -24 -11l-49 -77q-49 13 -92 38l19 89q3 16 -9 25q-30 25 -46 47 q-11 13 -25 8l-89 -19q-26 44 -39 92l77 49q14 8 12 24q-2 11 -2 33t2 33q2 16 -12 24l-77 49q12 46 38 92l89 -20q15 -3 25 9q18 23 47 47q12 9 9 25l-19 89q43 25 92 38l49 -77q8 -13 23 -11q22 2 34 2q11 0 33 -2q16 -2 24 12l48 76q45 -12 92 -39l-19 -88q-3 -15 9 -25 q29 -24 47 -47q10 -12 25 -9l88 20q25 -45 38 -93l-76 -48q-13 -8 -11 -24q2 -22 2 -33zM500 350q62 0 106 44t44 106t-44 106t-106 44t-106 -44t-44 -106t44 -106t106 -44z" />
<glyph unicode="1" d="M900 643v-443q0 -21 -14.5 -35.5t-35.5 -14.5h-700q-21 0 -35.5 14.5t-14.5 35.5v442q0 18 11.5 31.5t28.5 17.5l142 30q19 5 29 18l74 92q14 19 39 19h152q25 0 39 -19l74 -92q10 -13 29 -18l142 -29q17 -4 28.5 -18t11.5 -31zM500 200q104 0 177 73t73 177t-73 177 t-177 73t-177 -73t-73 -177t73 -177t177 -73zM775 600q11 0 18 7t7 18t-7 18t-18 7t-18 -7t-7 -18t7 -18t18 -7zM500 600q62 0 106 -44t44 -106t-44 -106t-106 -44t-106 44t-44 106t44 106t106 44z" />
<glyph unicode="2" d="M694 600l-38 -200h150l-18 -100h-151l-28 -150h-100l28 150h-150l-28 -150h-100l28 150h-149l18 100h150l38 200h-150l19 100h150l28 150h100l-28 -150h150l28 150h100l-28 -150h150l-19 -100h-150zM594 600h-150l-38 -200h150z" />
<glyph unicode="3" d="M700 700h150q21 0 35.5 -14.5t14.5 -35.5v-450q0 -21 -14.5 -35.5t-35.5 -14.5h-550q-21 0 -35.5 14.5t-14.5 35.5v150h-100q-21 0 -35.5 14.5t-14.5 35.5v400q0 21 14.5 35.5t35.5 14.5h500q21 0 35.5 -14.5t14.5 -35.5v-100zM250 450v200q0 21 14.5 35.5t35.5 14.5h300 v50h-400v-300h50zM800 600h-450v-350l100 100l50 -50l200 200l100 -100v200zM500 500q0 21 -14.5 35.5t-35.5 14.5t-35.5 -14.5t-14.5 -35.5t14.5 -35.5t35.5 -14.5t35.5 14.5t14.5 35.5z" />
<glyph unicode="4" d="M648 300l-148 148l-148 -148l-52 52l148 148l-148 148l52 52l148 -148l148 148l52 -52l-148 -148l148 -148z" />
<glyph unicode="5" d="M500 850q145 0 247.5 -102.5t102.5 -247.5t-102.5 -247.5t-247.5 -102.5t-247.5 102.5t-102.5 247.5t102.5 247.5t247.5 102.5zM500 200q124 0 212 88t88 212t-88 212t-212 88t-212 -88t-88 -212t88 -212t212 -88zM656 599l-99 -99l99 -99l-57 -57l-99 99l-99 -99l-57 57 l99 99l-99 99l57 57l99 -99l99 99z" />
<glyph unicode="6" d="M500 850q145 0 247.5 -102.5t102.5 -247.5t-102.5 -247.5t-247.5 -102.5t-247.5 102.5t-102.5 247.5t102.5 247.5t247.5 102.5zM557 500l99 99l-57 57l-99 -99l-99 99l-57 -57l99 -99l-99 -99l57 -57l99 99l99 -99l57 57z" />
<glyph unicode="7" d="M551 575l103 52q-61 73 -154 73q-82 0 -141 -59t-59 -141q0 -83 58.5 -141.5t141.5 -58.5q72 0 124.5 38.5t68.5 111.5h52q-18 -79 -88 -139.5t-157 -60.5q-104 0 -177 73t-73 177t73 177t177 73q109 0 184 -82l40 82l26 -6v-194h-194z" />
<glyph unicode="8" d="M500 1000q136 0 251 -67t182 -182t67 -251t-67 -251t-182 -182t-251 -67t-251 67t-182 182t-67 251t67 251t182 182t251 67zM500 50q122 0 226 60t164 164t60 226t-60 226t-164 164t-226 60t-226 -60t-164 -164t-60 -226t60 -226t164 -164t226 -60zM750 744v-194h-194 l-5 25l103 52q-61 73 -154 73q-82 0 -141 -59t-59 -141t59 -141t141 -59q69 0 122.5 42.5t70.5 107.5h52q-17 -86 -86 -143t-159 -57q-104 0 -177 73t-73 177t73 177t177 73q108 0 184 -81l40 81z" />
<glyph unicode="9" d="M498 1000q136 0 251 -67t182 -182t67 -251t-67 -251t-182 -182t-251 -67t-251 67t-182 182t-67 251t67 251t182 182t251 67zM748 550v194l-26 6l-40 -81q-75 81 -184 81q-104 0 -177 -73t-73 -177t73 -177t177 -73q90 0 159 57t86 143h-52q-17 -65 -70.5 -107.5 t-122.5 -42.5q-82 0 -141 59t-59 141t59 141t141 59q94 0 154 -73l-103 -52l5 -25h194z" />
<glyph unicode=":" d="M600 550h-250l125 200zM600 450l-125 -200l-125 200h250z" />
<glyph unicode="&#x3c;" d="M900 400l-50 -250h-700l-50 250l100 450h600zM250 800l-50 -350h200l-5 -50l5 -25q2 -11 11 -18t20 -7h138q11 0 20 7t11 18l5 25l-5 50h205l-55 350h-500z" />
<glyph unicode="=" d="M930 403l5 -31q6 -21 0 -43q-2 -8 -4 -14l-40 -100q-14 -30 -47.5 -48t-75.5 -17h-536q-42 -1 -75.5 17t-47.5 48q-27 69 -40 100q-2 6 -4 14q-6 22 0 43l5 31l54 329q10 80 73 94q8 24 41 24h32l-2 -19l-4 -29l-36 -331q-1 -14 2 -31l21 -78q4 -14 4 -25h-42 q-15 0 -32 17q-3 4 -7 14l-24 69q-8 22 -5 43l46 314q-32 -12 -39 -66v-1l-59 -360v-1q-3 -15 0 -30q7 -28 37.5 -45.5t72.5 -17.5h46q0 -12 2 -17l17 -62h5l227 76l226 -76h5l17 62q3 7 4 13h45q42 0 72.5 19t37.5 48q5 15 0 30v1l-59 360v1q-7 53 -40 67l47 -315 q3 -21 -5 -43l-24 -69q-4 -10 -8 -14q-15 -17 -34 -17h-39q0 15 3 25l21 78q3 17 2 31l-36 331l-3 29l-3 19h33q32 0 40 -24q64 -15 74 -94zM401 539q38 101 38 102q-30 24 -89 64h113q28 62 37 85q23 -50 38 -85h113q-4 -3 -17.5 -13t-31.5 -23t-38 -27q12 -32 19 -50 q8 -25 20 -53l-102 62q0 -1 -100 -62z" />
<glyph unicode="&#x3e;" d="M900 400l-50 -250h-700l-50 250l100 450h600zM250 800l-50 -350h200l-5 -50l5 -25q2 -11 11 -18t20 -7h138q11 0 20 7t11 18l5 25l-5 50h205l-55 350h-500zM700 650h-400l-10 100h420z" />
<glyph unicode="@" d="M500 400l-250 250v100l200 -125v275h100v-275l200 125v-100zM459 300h-359v100h259l70 -71zM900 400v-100h-359l30 29l70 71h259zM900 200h-800v-100h800v100z" />
<glyph unicode="A" d="M900 400l-50 -250h-700l-50 250l100 450h600zM600 450h205l-55 350h-500l-50 -350h200l-5 -50l5 -25q2 -11 11 -18t20 -7h138q11 0 20 7t11 18l5 25zM300 650l-10 100h420l-10 -100h-400zM265 600h470l-10 -100h-450z" />
<glyph unicode="B" d="M839 220q11 -63 11 -120h-700q0 62 12 120q12 56 64 75q80 29 160 47q17 4 28 17.5t11 31.5q0 23 -20 35q-49 28 -67 80q-4 10 -10 30l-14 7q-15 8 -21 23q-14 31 -17 64q-2 19 17 26l10 3l-2 17q0 4 -0.5 12.5t-0.5 11.5q0 78 63 125q62 47 137 25q-19 27 -50 43 q28 7 50 7q83 0 141.5 -58.5t58.5 -141.5q0 -16 -1 -24q0 -3 -0.5 -8.5t-0.5 -8.5l10 -3q19 -7 17 -26q-3 -36 -16 -64q-8 -16 -22 -23l-14 -7q-4 -10 -10 -30q-18 -52 -67 -80q-21 -11 -21 -35q0 -18 11 -31.5t28 -17.5q80 -18 161 -47q52 -19 64 -75zM50 300v125 q-51 3 -92.5 -4t-66.5 -19.5t-44 -30t-27.5 -32.5t-13.5 -31.5t-5.5 -22.5t-0.5 -10q0 6 0.5 15.5t5.5 36.5t13.5 51.5t27.5 53.5t44 49.5t66.5 33.5t92.5 10v125l200 -175z" />
<glyph unicode="C" d="M618 608h382l-309 -219l118 -360l-309 226l-309 -224l118 358l-309 219h382l118 363zM436 533h-200l116 -83l46 -32l-18 -52l-45 -138l165 120l165 -121l-45 139l-18 53l46 32l116 82h-200l-64 196z" />
<glyph unicode="D" d="M382 600h-382l309 -219l-118 -357l309 223l309 -226l-118 361l309 218h-382l-118 364z" />
<glyph unicode="E" d="M885 885q15 -13 15 -35v-700q0 -21 -14.5 -35.5t-35.5 -14.5h-700q-21 0 -35.5 14.5t-14.5 35.5v700q0 20 14.5 35t35.5 15h700q22 0 35 -15zM675 800h-350q-11 0 -18 -7t-7 -18t7 -18t18 -7h350q11 0 18 7t7 18t-7 18t-18 7zM150 200h700q-22 111 -34.5 223.5 t-13.5 169.5l-2 57h-600q0 -200 -50 -450z" />
<glyph unicode="F" d="M885 886q15 -15 15 -36v-700q0 -20 -14.5 -35t-35.5 -15h-700q-21 0 -35.5 15t-14.5 35v700q0 21 14.5 35.5t35.5 14.5h700q21 0 35 -14zM675 800h-350q-11 0 -18 -7t-7 -18q0 -10 7.5 -17.5t17.5 -7.5h350q10 0 17.5 7.5t7.5 17.5q0 11 -7 18t-18 7zM150 200h700 q-22 111 -34.5 223.5t-13.5 169.5l-2 57h-600q0 -200 -50 -450zM300 550h400v-100h-400v100zM300 400h400v-100h-400v100z" />
<glyph unicode="G" d="M700 750q104 0 177 -73t73 -177t-73 -177t-177 -73q-80 0 -146 48q32 39 50 88q43 -36 96 -36q62 0 106 44t44 106t-44 106t-106 44t-100.5 -42t-49.5 -108q-19 -111 -81.5 -180.5t-168.5 -69.5q-104 0 -177 73t-73 177t73 177t177 73q80 0 146 -48q-32 -39 -50 -88 q-43 36 -96 36q-62 0 -106 -44t-44 -106t44 -106t106 -44t100 42t50 108q44 250 250 250z" />
<glyph unicode="H" d="M921 909l29 -56q-307 -254 -489 -609q-31 -57 -46 -94l-20 22q-156 174 -345 313l77 77q124 -53 232 -131q231 293 562 478z" />
<glyph unicode="I" d="M500 900q166 0 283 -103t117 -248t-117.5 -247.5t-283.5 -102.5q-35 -69 -102 -109.5t-146 -40.5h-2q7 9 20 26t17.5 23.5t11 18t8.5 22t2 23.5q2 69 -55 113q-71 49 -112 120.5t-41 153.5q0 145 117 248t283 103z" />
<glyph unicode="J" d="M500 899q166 0 283 -102.5t117 -247.5t-117.5 -247.5t-283.5 -102.5q-35 -70 -102 -110t-146 -39h-2q59 41 59 112q2 65 -50 109q-73 49 -115.5 122t-42.5 156q0 145 117 247.5t283 102.5zM500 299q124 0 212 73.5t88 176.5t-88 176.5t-212 73.5t-212 -73.5t-88 -176.5 t88 -176.5t212 -73.5z" />
<glyph unicode="K" d="M900 800v-100h-800v100h800zM900 550v-100h-800v100h800zM900 300v-100h-800v100h800z" />
<glyph unicode="L" d="M541 353q42 -16 50 -59q9 -47 9 -144h-550q0 92 10 144q10 43 50 59q59 21 126 37q13 3 22 13.5t9 24.5q0 18 -16 28q-38 22 -53 62q-2 4 -4 12t-4 12l-10 5q-12 6 -17 18q-10 22 -13 51q-2 15 13 20l8 3q0 2 -0.5 6t-0.5 7q-1 6 -1 19q0 61 49 97q49 38 108 20 q-14 21 -40 34q22 5 40 5q64 0 110 -45.5t46 -110.5v-19q0 -2 -0.5 -6.5t-1.5 -6.5l9 -3q15 -5 13 -20q-3 -29 -13 -51q-5 -12 -17 -18l-11 -5q-1 -4 -4 -12t-4 -12q-14 -40 -52 -62q-17 -10 -17 -28q0 -14 9 -24.5t22 -13.5q68 -16 126 -37zM945 255q5 -26 5 -105h-300 q0 105 -10 154q-3 15 -11 33q2 1 7 2.5t8 1.5q16 3 24 18q8 13 3 29q-2 5 -6 5q-49 9 -89 31q20 37 20 61.5t-10 58t-10 67.5q0 58 47 94q46 35 103 18q-14 21 -38 32q18 6 38 6q62 0 105.5 -44t43.5 -106q0 -34 -9.5 -67.5t-9.5 -58t19 -61.5q-40 -21 -88 -31q-5 0 -7 -5 q-3 -17 4 -29q8 -15 23 -18q49 -12 91 -29q40 -15 47 -57z" />
<glyph unicode="M" d="M1000 450h-450v-450h-100v450h-450v100h450v450h100v-450h450v-100z" />
<glyph unicode="N" d="M720 900h6q68 -9 116 -57.5t56 -115.5q3 -25 -14 -42l-467 -468q-16 -16 -40 -24l-277 -93l93 278q8 24 24 40l467 468q16 14 36 14zM743 650l79 79q-8 35 -33.5 61t-60.5 33l-79 -79q62 -32 94 -94zM359 266l328 328q-12 32 -37 57t-57 37l-328 -328q10 -34 35 -59 t59 -35z" />
<glyph unicode="O" d="M700 700v-125q0 -11 7 -18t18 -7v-100h-1q-23 0 -25 -22q-7 -63 -48 -109.5t-101 -61.5v-36q0 -19 12.5 -33.5t31.5 -16.5q54 -6 106 -21v-50h-400v50q52 15 106 21q19 2 31.5 16.5t12.5 33.5v36q-60 15 -101 61.5t-48 109.5q-2 22 -25 22h-1v100q10 0 18 8q7 6 7 18v124 q0 83 58.5 141.5t141.5 58.5t141.5 -58.5t58.5 -141.5zM600 550v150q0 41 -29.5 70.5t-70.5 29.5t-70.5 -29.5t-29.5 -70.5v-150h200z" />
<glyph unicode="P" d="M885 885q15 -13 15 -35v-700q0 -21 -14.5 -35.5t-35.5 -14.5h-700q-21 0 -35.5 14.5t-14.5 35.5v700q0 21 14.5 35.5t35.5 14.5h700q22 0 35 -15zM675 800h-350q-11 0 -18 -7t-7 -18t7 -18t18 -7h350q11 0 18 7t7 18t-7 18t-18 7zM150 200h700q-22 111 -34.5 223.5 t-13.5 169.5l-2 57h-600q0 -200 -50 -450zM300 550h100v-100h-100v100zM450 550h100v-100h-100v100zM600 550h100v-100h-100v100zM300 400h100v-100h-100v100zM450 400h100v-100h-100v100zM600 400h100v-100h-100v100z" />
<glyph unicode="Q" d="M813 812h-1q60 -60 88 -136l-36 -74q-6 -12 -18.5 -16.5t-24.5 1.5q-24 11 -49.5 4.5t-42.5 -27.5l-64 -87q-18 -24 -19.5 -53.5t14.5 -55.5q18 -29 14 -63.5t-29 -58.5l-45 -46l-400 400l46 45q24 25 58.5 29t63.5 -14q25 -16 55.5 -14.5t53.5 19.5l87 64 q21 17 27.5 42.5t-4.5 49.5q-6 12 -1.5 24.5t16.5 18.5l74 36q75 -27 137 -88zM367 292l-142 -142l-125 -50l50 125l177 177z" />
<glyph unicode="R" d="M749 749q51 -52 51 -124t-51 -124l-118 -118q-31 -31 -76 -31q-44 0 -75 31t-31 74.5t31 74.5l119 119q22 0 37.5 -15t16.5 -38l-119 -118q-10 -10 -10 -22q0 -11 9 -22q9 -9 23 -9q13 0 22 9l118 118q29 29 29 71t-29 71t-71 29t-71 -29l-250 -250q-29 -29 -29 -71 t29 -71t71 -29t71 29l21 22q22 0 37.5 -15.5t15.5 -37.5l-21 -22q-51 -51 -124 -51t-124 51q-51 52 -51 124t51 124l250 250q51 51 124 51t124 -51z" />
<glyph unicode="S" d="M550 231l247 245q22 0 37.5 -16t15.5 -38l-246 -244q-79 -77 -188 -77t-188 77q-77 77 -77 187q0 108 78 186l298 295q55 55 134 55t134 -55q55 -56 55 -133.5t-55 -132.5l-298 -295q-33 -33 -80 -33t-81 33q-33 33 -33 80q0 45 33 80l261 257q23 0 38.5 -16t15.5 -38 l-261 -257q-11 -11 -11 -26.5t11 -26.5t27 -11t27 11l298 295q33 33 33 80t-33 80t-80.5 33t-80.5 -33l-299 -295q-54 -54 -56 -133q0 -78 56 -134q56 -55 134 -55t134 55z" />
<glyph unicode="T" d="M641 800h159q21 0 35.5 -14.5t14.5 -35.5v-600q0 -21 -14.5 -35.5t-35.5 -14.5h-600q-21 0 -35.5 14.5t-14.5 35.5v600q0 21 14.5 35.5t35.5 14.5h159q35 0 47 33q10 30 35.5 48.5t58.5 18.5t58.5 -18.5t35.5 -48.5q12 -33 47 -33zM750 700h-500v-100h500v100zM350 500 h-100v-100h100v100zM750 500h-300v-100h300v100zM350 300h-100v-100h100v100zM750 300h-300v-100h300v100z" />
<glyph unicode="U" d="M500 800h2q138 -1 248.5 -84t149.5 -216q-39 -133 -149.5 -216t-248.5 -84h-2q-138 0 -248.5 82.5t-150.5 214.5l-1 3l1 3q40 133 150.5 215t248.5 82zM500 300q82 0 141 59t59 141t-59 141t-141 59t-141 -59t-59 -141t59 -141t141 -59zM500 600q41 0 70.5 -29.5 t29.5 -70.5t-29.5 -70.5t-70.5 -29.5t-70.5 29.5t-29.5 70.5t29.5 70.5t70.5 29.5z" />
<glyph unicode="V" d="M303 251l-101 -101l-54 53l91 90q-101 80 -138 204l-1 3l1 3q40 132 150.5 214t248.5 82h2q107 -2 195 -50l101 101l54 -53l-91 -90l-96 -95l-73 -73l-131 -131l-73 -73zM500 699q-83 0 -141.5 -58.5t-58.5 -140.5q0 -61 35 -112l73 73q-8 19 -8 39q0 41 29.5 70.5 t70.5 29.5q20 0 39 -8l73 73q-52 34 -112 34zM696 537l119 118q61 -70 85 -155q-39 -132 -149.5 -215t-248.5 -84h-2q-60 0 -122 19l85 84q18 -3 37 -3q83 0 141.5 58.5t58.5 140.5q0 21 -4 37z" />
<glyph unicode="W" d="M838 220q12 -60 12 -120h-700q0 62 12 120q10 55 63 75q85 30 161 47q17 4 28 17.5t11 31.5q0 24 -21 35q-47 28 -67 80q-6 20 -10 30l-13 7q-14 7 -22 23q-13 33 -16 64q-2 19 17 26l10 3q-2 12 -2 17q-1 8 -1 24q0 78 63 125q62 47 137 25q-18 27 -51 43q30 7 51 7 q82 0 141 -59t59 -141q0 -16 -1 -24q0 -5 -2 -17l11 -3q19 -7 17 -26q-3 -31 -16 -64q-8 -16 -22 -23l-15 -7l-9 -30q-18 -50 -67 -80q-21 -11 -21 -35q0 -18 11 -31.5t28 -17.5q76 -17 161 -47q53 -20 63 -75zM200 450h-100v-100h-100v100h-100v100h100v100h100v-100h100 v-100z" />
<glyph unicode="X" d="M900 850v-700h-800v700h800zM200 750v-25q135 -135 300 -225q165 90 300 225v25h-600zM800 650l-300 -300l-300 300v-400h600v400z" />
<glyph unicode="Y" d="M850 600v-550h-700v550h100v100q0 104 73 177t177 73t177 -73t73 -177v-100h100zM350 700v-100h300v100q0 62 -44 106t-106 44t-106 -44t-44 -106zM750 500h-500v-350h500v350zM475 200v107q-25 13 -25 43q0 21 14.5 35.5t35.5 14.5t35.5 -14.5t14.5 -35.5q0 -30 -25 -43 v-107h-50z" />
<glyph unicode="Z" d="M900 550l-43 -258q-3 -18 -17 -30t-32 -12h-28l-39 200h-482l-39 -200h-28q-18 0 -32 12t-17 30l-43 258l61 122q15 28 45 28h44v150h500v-150h44q30 0 45 -28zM300 650h400v150h-400v-150zM301 400l-50 -250h498l-50 250h-398z" />
<glyph unicode="\" d="M977 933l23 -47q-254 -211 -407 -507q-24 -44 -38 -79q-6 7 -17 18q-134 150 -288 261l65 65q101 -43 193 -109q195 245 469 398zM800 250v276q39 55 100 125v-401q0 -62 -44 -106t-106 -44h-500q-62 0 -106 44t-44 106v500q0 62 44 106t106 44h495q-49 -36 -123 -100 h-372q-21 0 -35.5 -14.5t-14.5 -35.5v-500q0 -20 14.5 -35t35.5 -15h500q21 0 35.5 15t14.5 35z" />
<glyph unicode="_" d="M200 650h600l-300 -351z" />
<glyph unicode="a" d="M607 550h-101l147 350h93l148 -350h-103l-25 63h-134zM300 850l150 -150v-50l-100 38v-138h-100v137l-100 -37v50zM660 688h78l-39 98zM350 313l100 37v-50l-150 -150l-150 150v50l100 -38v138h100v-137zM549 450h303v-70l-175 -198h175v-82h-309v70l176 198h-170v82z " />
<glyph unicode="b" d="M885 885q15 -13 15 -35v-700q0 -21 -14.5 -35.5t-35.5 -14.5h-700q-21 0 -35.5 14.5t-14.5 35.5v700q0 21 14.5 35.5t35.5 14.5h700q22 0 35 -15zM-150 850l150 -150v-50l-100 38v-138h-100v137l-100 -37v50zM675 800h-350q-11 0 -18 -7t-7 -18t7 -18t18 -7h350 q11 0 18 7t7 18t-7 18t-18 7zM150 200h700q-22 111 -34.5 223.5t-13.5 169.5l-2 57h-600q0 -200 -50 -450zM375 347h107v-47h-182v43l82 67q42 35 42 59q0 32 -33 32q-23 0 -50 -33l-38 31q37 51 92 51q38 0 61.5 -21t23.5 -55v-1q0 -29 -14 -48t-51 -47zM701 546v-41 l-110 -205h-61l110 199h-116v47h177zM-100 313l100 37v-50l-150 -150l-150 150v50l100 -38v138h100v-137z" />
<glyph unicode="c" d="M885 885q15 -13 15 -35v-700q0 -21 -14.5 -35.5t-35.5 -14.5h-700q-21 0 -35.5 14.5t-14.5 35.5v700q0 21 14.5 35.5t35.5 14.5h700q22 0 35 -15zM675 800h-350q-11 0 -18 -7t-7 -18t7 -18t18 -7h350q11 0 18 7t7 18t-7 18t-18 7zM150 200h700q-22 111 -34.5 223.5 t-13.5 169.5l-2 57h-600q0 -200 -50 -450zM375 347h107v-47h-182v43l82 67q42 35 42 59q0 32 -33 32q-23 0 -50 -33l-38 31q37 51 92 51q38 0 61.5 -21t23.5 -55v-1q0 -29 -14.5 -48t-50.5 -47zM524 546h177v-41l-110 -205h-61l110 199h-116v47z" />
<glyph unicode="d" d="M506 538q154 195 375 319l19 -38q-205 -170 -326 -405q-20 -36 -30 -63l-14 14q-108 120 -230 209l52 52q85 -38 154 -88zM750 300v294q46 58 99 111q1 -2 1 -5v-400q0 -62 -44 -106t-106 -44h-400q-62 0 -106 44t-44 106v400q0 62 44 106t106 44h400q29 0 57 -11 q-53 -37 -115 -89h-342q-21 0 -35.5 -14.5t-14.5 -35.5v-400q0 -21 14.5 -35.5t35.5 -14.5h400q21 0 35.5 14.5t14.5 35.5z" />
<glyph unicode="e" d="M376 875l44 -33q-95 -19 -171 -80.5t-115 -149.5l-22 49q-16 34 -11 71t30 65q48 52 108 87q32 18 69.5 15.5t67.5 -24.5zM868 797q25 -29 30.5 -65.5t-10.5 -70.5l-22 -49q-39 88 -115 149.5t-171 80.5l44 33q30 22 67.5 24.5t69.5 -15.5q61 -35 107 -87zM850 450 q0 -157 -119 -263l19 -61q-5 -15 -17 -22q-6 -4 -26 -4l-39 43q-80 -43 -168 -43t-168 43l-39 -43q-21 0 -27 4q-13 8 -16 22l19 62q-56 49 -87.5 117t-31.5 145q0 145 102.5 247.5t247.5 102.5t247.5 -102.5t102.5 -247.5zM500 200q104 0 177 73t73 177t-73 177t-177 73 t-177 -73t-73 -177t73 -177t177 -73zM537 650l13 -188q0 -26 -18.5 -44t-44.5 -18l-137 13v37l137 13l13 187h37z" />
<glyph unicode="f" d="M500 200q124 0 212 88t88 212h100q0 -166 -117 -283t-283 -117t-283 117t-117 283t117 283t283 117q87 0 163.5 -35.5t132.5 -97.5l66 132l38 -9v-290h-290l-9 38l121 60q-89 102 -222 102q-124 0 -212 -88t-88 -212t88 -212t212 -88zM500 700v-200l101 -101l-35 -35 l-120 89q-24 19 -19 46l23 201h50z" />
<glyph unicode="g" d="M500 200q124 0 212 88t88 212h100q0 -166 -117 -283t-283 -117t-283 117t-117 283t117 283t283 117q87 0 163.5 -35t132.5 -97l66 131l38 -9v-290h-290l-9 38l120 60l2 2q-90 100 -223 100q-124 0 -212 -88t-88 -212t88 -212t212 -88z" />
<glyph unicode="h" d="M800 800v-300l-115 115l-164 -165h-71v71l165 164l-115 115h300zM650 450h100v-150q0 -21 -14.5 -35.5t-35.5 -14.5h-400q-21 0 -35.5 14.5t-14.5 35.5v400q0 21 14.5 35.5t35.5 14.5h150v-100h-100v-300h300v100z" />
<glyph unicode="i" d="M200 850h600q21 0 35.5 -14.5t14.5 -35.5v-600q0 -21 -14.5 -35.5t-35.5 -14.5h-600q-21 0 -35.5 14.5t-14.5 35.5v600q0 21 14.5 35.5t35.5 14.5zM250 750v-500h500v500h-500zM600 500l-250 200v-400z" />
<glyph unicode="j" d="M851 650h-58l-42 -550h-500l-42 550h-58v62q0 17 10.5 30.5t27.5 17.5q80 20 168 31l44 109h200l44 -109q88 -11 168 -31q17 -4 27.5 -17.5t10.5 -30.5v-62zM437 850l-19 -54q83 6 167 0l-18 54h-130zM693 650h-384l35 -450h314zM414 250l-27 350h50l27 -350h-50z M588 250h-50l26 350h51z" />
<glyph unicode="k" d="M839 220q12 -60 12 -120h-700q0 62 12 120q10 55 63 75q85 30 161 47q17 4 28 17.5t11 31.5q0 24 -21 35q-47 28 -67 80q-6 20 -10 30l-13 7q-14 7 -22 23q-13 33 -16 64q-2 19 17 26l10 3q-2 12 -2 17q-1 8 -1 24q0 78 63 125q62 47 137 25q-18 27 -51 43q30 7 51 7 q83 0 141.5 -59t58.5 -141q0 -16 -1 -24q0 -5 -2 -17l11 -3q19 -7 17 -26q-3 -31 -16 -64q-8 -16 -22 -23l-15 -7l-9 -30q-18 -50 -67 -80q-21 -11 -21 -35q0 -18 11 -31.5t28 -17.5q76 -17 161 -47q53 -20 63 -75z" />
<glyph unicode="l" d="M812 374q38 -30 38 -78v-46h-700v46q0 48 38 78q66 53 78 136l34 240q47 29 100 43q25 7 25 32q0 31 22 53t53 22t53 -22t22 -53q0 -26 25 -33q55 -14 100 -43l34 -238q12 -84 78 -137zM500 850q-10 0 -17.5 -7t-7.5 -18t7.5 -18t17.5 -7t17.5 7t7.5 18t-7.5 18t-17.5 7z M500 100q-41 0 -70.5 29.5t-29.5 70.5h200q0 -41 -29.5 -70.5t-70.5 -29.5z" />
<glyph unicode="m" d="M749 300h-550v25q0 38 30 62q52 41 61 107l27 188q32 21 74 32q8 2 8 11q0 31 22 53t53 22t53 -22t22 -53v-2q0 -7 7 -10q44 -12 75 -32l27 -187q9 -66 61 -107q30 -24 30 -62v-25zM474 700q10 0 17.5 7t7.5 18t-7.5 18t-17.5 7t-17.5 -7t-7.5 -18t7.5 -18t17.5 -7z M404 250h140q5 -13 5 -25q0 -31 -22 -53t-53 -22t-53 22t-22 53q0 12 5 25z" />
<glyph unicode="n" d="M600 350h100v-150q0 -21 -14.5 -35.5t-35.5 -14.5h-450q-21 0 -35.5 14.5t-14.5 35.5v600q0 21 14.5 35.5t35.5 14.5h450q20 0 35 -14.5t15 -35.5v-150h-100v100h-350v-500h350v100zM800 300v150h-299v100h299v150l200 -199z" />
<glyph unicode="o" d="M635 800h203q26 0 44 -18.5t18 -45.5v-572q0 -27 -18 -45.5t-44 -18.5h-676q-26 0 -44 18.5t-18 45.5v572q0 27 18 45.5t44 18.5h203l74 74q25 26 61 26t61 -26zM435 800h130l-39 39q-10 10 -26 10t-26 -10zM800 700h-600v-450l150 150l50 -50l200 200l200 -200v350z M350 500q-21 0 -35.5 14.5t-14.5 35.5t14.5 35.5t35.5 14.5t35.5 -14.5t14.5 -35.5t-14.5 -35.5t-35.5 -14.5z" />
<glyph unicode="p" d="M900 800v-100h-500v100h500zM400 450h-100v-100h-100v100h-100v100h100v100h100v-100h100v-100zM500 550h400v-100h-400v100zM400 300h500v-100h-500v100z" />
<glyph unicode="q" d="M1000 850q0 62 -44 106t-106 44t-106 -44t-44 -106t44 -106t106 -44t106 44t44 106zM850 650q22 0 50 7v-407q0 -62 -44 -106t-106 -44h-500q-62 0 -106 44t-44 106v500q0 62 44 106t106 44h407q-7 -28 -7 -50q0 -75 50 -131v-469l-200 100l-200 -100v550h-50 q-21 0 -35.5 -14.5t-14.5 -35.5v-500q0 -21 14.5 -35.5t35.5 -14.5h500q21 0 35.5 14.5t14.5 35.5l-1 407q30 -7 51 -7zM350 600l93 -66l-36 -108l93 67l93 -67l-36 108l93 66h-115l-35 109l-35 -109h-115z" />
<glyph unicode="r" d="M900 500h-75q0 134 -95.5 229.5t-229.5 95.5v75q166 0 283 -117t117 -283zM800 300l-23 -23q-26 -27 -65 -29l-230 -14q-37 -2 -65 -29l-105 -105q-70 32 -125 87t-87 125l105 105q27 28 29 65l14 230q2 39 29 65l23 23zM750 500h-75q0 72 -51.5 123.5t-123.5 51.5v75 q104 0 177 -73t73 -177z" />
<glyph unicode="s" d="M730 564q13 -17 30 -43q19 -30 15.5 -65t-28.5 -60l-54 -54l-351 351l54 54q25 25 60 28.5t64 -15.5q25 -15 44 -30q15 -11 33.5 -9.5t31.5 14.5l165 165q38 -12 66 -40t40 -66l-165 -165q-13 -13 -14.5 -31.5t9.5 -33.5zM775 800q-11 0 -18 -7t-7 -18t7 -18t18 -7t18 7 t7 18t-7 18t-18 7zM307 658l351 -351q-96 -98 -158 -207q-58 34 -111 75q62 108 111 172q-71 -71 -137 -151q-160 130 -263 304q113 64 207 158z" />
<glyph unicode="t" d="M500 900q166 0 283 -117t117 -283t-117 -283t-283 -117t-283 117t-117 283t117 283t283 117zM622 689l54 84q-79 52 -176 52t-176 -52l54 -84q57 36 122 36t122 -36zM311 622l-84 54q-52 -79 -52 -176t52 -176l84 54q-36 57 -36 122t36 122zM689 378l84 -54q52 79 52 176 t-52 176l-84 -54q36 -57 36 -122t-36 -122zM626 419q24 37 24 81t-24 81q-18 27 -45 45q-37 24 -81 24t-81 -24q-27 -18 -45 -45q-24 -37 -24 -81t24 -81q18 -27 45 -45q37 -24 81 -24t81 24q27 18 45 45zM378 311l-54 -84q79 -52 176 -52t176 52l-54 84q-57 -36 -122 -36 t-122 36z" />
<glyph unicode="u" d="M500 900q166 0 283 -117t117 -283t-117 -283t-283 -117t-283 117t-117 283t117 283t283 117zM500 825q-134 0 -229.5 -95.5t-95.5 -229.5t95.5 -229.5t229.5 -95.5t229.5 95.5t95.5 229.5t-95.5 229.5t-229.5 95.5zM556 649q0 14 -4 23t-13 18q-7 8 -18 12q-9 4 -22 4 t-21 -4q-10 -4 -18 -12t-12 -18q-4 -9 -4 -23q0 -12 4 -21q4 -10 12 -18t18 -12q8 -4 21 -4t22 4q11 4 18 12q9 9 13 18t4 21zM450 550v-250h100v250h-100z" />
<glyph unicode="v" d="M255 599l-155 110h191l59 182l59 -182h191l-154 -110l21 -67l-50 -50l-67 49l-154 -112zM766 708h4q51 -7 87 -43t43 -87q2 -18 -11 -31l-351 -351q-12 -12 -29 -18l-208 -69l69 208q6 17 18 29l351 351q11 11 27 11zM783 521l59 59q-6 26 -25 45t-45 25l-59 -59 q45 -25 70 -70zM496 233l245 245q-19 52 -70 71l-246 -246q16 -54 71 -70z" />
<glyph unicode="w" d="M750 800l-302 -300l301 -301q1 -41 -28.5 -70t-70.5 -29l-400 399l400 401q41 0 70.5 -29.5t29.5 -70.5z" />
<glyph unicode="x" d="M121 750h758q21 -21 21 -50t-21 -50h-758q-21 21 -21 50t21 50zM121 550h758q21 -21 21 -50t-21 -50h-758q-21 21 -21 50t21 50zM121 350h758q21 -21 21 -50t-21 -50h-758q-21 21 -21 50t21 50z" />
<glyph unicode="y" d="M611 600h290v290l-38 9l-66 -132q-56 62 -132.5 97.5t-163.5 35.5q-166 0 -283 -117t-117 -283h100q0 124 88 212t212 88q129 0 221 -102l-120 -60zM391 400h-290v-290l38 -9l66 132q56 -63 132.5 -98t163.5 -35q166 0 283 117t117 282v1h-100v-1q0 -124 -88 -211.5 t-212 -87.5q-129 0 -221 102l120 60z" />
<glyph unicode="z" d="M895 164q-19 -40 -59 -59q-32 -15 -57 10l-196 196q27 27 42 64l-13 13v-1q-4 -4 -13 -11.5t-14 -11.5q-2 -2 -4 -3q-9 -7 -29 -19q-70 -42 -152 -42q-124 0 -212 88t-88 212t88 212t212 88t212 -88t88 -212q0 -65 -26 -122q-15 -31 10 -56l201 -201q25 -25 10 -57z M200 600q0 -82 59 -141t141 -59t141 59t59 141t-59 141t-141 59t-141 -59t-59 -141z" />
<glyph unicode="&#xa2;" d="M1000 450h-400v-400h-150v400h-400v150h400v400h150v-400h400v-150z" />
<glyph unicode="&#xa7;" d="M200 500l250 250h100l-125 -200h325v-100h-325l125 -200h-100z" />
<glyph unicode="&#xae;" d="M900 500h-75q0 134 -95.5 229.5t-229.5 95.5v75q166 0 283 -117t117 -283zM885 185l-700 700l-70 -70l700 -700zM750 500h-75q0 72 -51.5 123.5t-123.5 51.5v75q104 0 177 -73t73 -177zM617 242l-135 -8q-37 -2 -65 -29l-105 -105q-70 32 -125 87t-87 125l105 105 q27 28 29 65l8 135z" />
<glyph unicode="&#xb5;" d="M940 267q10 -49 10 -117h-600q0 68 10 117q10 48 55 64q59 22 137 41q15 3 24.5 14.5t9.5 26.5q0 21 -18 31q-42 24 -57 68l-9 26l-11 6q-13 6 -19 20q-11 22 -14 55q-2 17 15 22l8 3q-1 4 -1 14q-1 7 -1 21q0 66 53 107q54 40 118 21q-17 25 -43 37q28 6 43 6 q71 0 121 -50t50 -121q0 -14 -1 -21q0 -9 -1 -14l9 -3q17 -5 15 -22q-3 -28 -14 -55q-6 -14 -19 -20l-12 -6l-9 -26q-15 -44 -57 -68q-18 -10 -18 -31q0 -15 9.5 -26.5t24.5 -14.5q78 -18 137 -41q45 -16 55 -64zM251 300v100q-51 0 -90.5 -10.5t-59.5 -25t-32.5 -29 t-15.5 -25.5l-3 -10q2 1 0 11.5t2 28.5t9 39t20.5 42.5t35.5 39t55 28.5t79 11v100l199 -150z" />
<glyph unicode="&#xb6;" d="M625 875q0 52 -36.5 88.5t-88.5 36.5t-88.5 -36.5t-36.5 -88.5t36.5 -88.5t88.5 -36.5t88.5 36.5t36.5 88.5zM625 500q0 52 -36.5 88.5t-88.5 36.5t-88.5 -36.5t-36.5 -88.5t36.5 -88.5t88.5 -36.5t88.5 36.5t36.5 88.5zM625 125q0 52 -36.5 88.5t-88.5 36.5t-88.5 -36.5 t-36.5 -88.5t36.5 -88.5t88.5 -36.5t88.5 36.5t36.5 88.5z" />
<glyph unicode="&#xf8;" d="M400 700h-300v100h400zM899 500q0 -15 -1 -22q-2 -9 7 -16l50 -32q-9 -34 -25 -61l-58 13q-11 2 -17 -6q-13 -18 -31 -31q-8 -6 -6 -17l13 -58q-31 -18 -61 -26l-32 51q-7 9 -16 7q-4 0 -11 -0.5t-11 -0.5q-15 0 -22 1q-9 2 -16 -7l-32 -51q-34 9 -61 25l13 59 q2 11 -6 17q-18 13 -31 31q-6 8 -17 6l-59 -13q-16 27 -25 60l51 33q9 7 7 16q-1 7 -1 22t1 22q2 9 -7 16l-51 32q9 34 25 61l59 -13q11 -2 17 6q13 18 31 31q8 6 6 17l-13 59q27 16 61 25l32 -51q5 -9 16 -7q7 1 22 1t22 -1q9 -2 16 7l32 51q30 -8 61 -26l-13 -58 q-2 -11 6 -17q18 -13 31 -31q6 -8 17 -6l58 13q16 -27 25 -61l-50 -32q-9 -7 -7 -16q1 -7 1 -22zM699 400q42 0 71.5 29.5t29.5 70.5t-29.5 70.5t-71.5 29.5q-41 0 -70.5 -29.5t-29.5 -70.5t29.5 -70.5t70.5 -29.5zM350 450h-250v100h250v-100zM500 200h-400v100h300z" />
<glyph unicode="&#x192;" d="M500 850q-90 0 -166 -42l-73 73q111 69 239 69q122 0 226 -60t164 -164t60 -226q0 -128 -69 -239l-73 73q31 57 39 125q-11 26 -19 36q-4 4 -8 6t-6.5 2.5t-8 0t-7.5 -0.5q-5 0 -6 -2t0.5 -5.5t0.5 -4.5q-5 -9 -12.5 -14.5t-21 -10.5t-17.5 -7h-3t-3 -1t-1 -3h9 q2 0 5.5 1.5t6 1.5t4.5 -3q1 -4 1 -5.5t-2 -5.5l-3 -6q-3 -7 -24 -28l-145 145q21 4 25 -16q1 -1 9 -4q10 -5 30 -1t26 -1q18 -3 20 5q1 4 -1.5 6.5t-4.5 0.5q-6 -3 -19 6.5t-19 -3.5h-3q-3 9 -15.5 10.5t-15.5 4.5q-16 17 -42 2l-21 21q-1 1 -1 2t-0.5 1.5t-0.5 1.5 q-5 15 -17 14l-8 8q2 8 15 19q11 11 17 -6q5 -12 15 -15q7 -2 17 6q3 3 -3 14q-11 13 2 19q8 4 21.5 13.5t25 14.5t24.5 2q11 2 27.5 -3t22.5 -5q41 -3 81 3q5 0 8 1q-47 80 -127 127t-175 47zM124 947l824 -824l-71 -70l-824 823zM552 720q-10 -6 -13 -21q-2 -20 -24 -29 q-5 -2 -33 -10l-73 73q6 -1 11.5 0.5t12 6t8.5 5.5q9 5 20 6t18.5 0.5t21 -2.5t18.5 -3q1 0 6 -7q7 -18 20 -7q7 5 12 -2q3 -5 -5 -10zM500 150q89 0 167 42l72 -73q-111 -69 -239 -69q-122 0 -226 60t-164 164t-60 226q0 128 69 239l42 -41l166 -166q-5 -8 -2 -18 q0 -7 -4 -7q-3 -1 -8 6q-5 9 -11.5 10t-16.5 -1.5t-13 -2.5q-4 0 -6.5 -2t-3.5 -4.5t-2 -7.5q-3 -11 7 -19q6 -5 15 4q6 6 15 3q3 -2 2 -7l-1 -4q9 -9 21 -33q1 -1 9 1q6 0 19.5 4t22.5 2q34 -5 73 -41q1 -1 2 -1l45 -45q-9 -18 -15 -36q-2 -5 -5 -7q-16 -5 -32.5 -27.5 t-24.5 -28.5q-2 -2 -9 -5t-11.5 -7t-7.5 -9q-2 -3 -5.5 -15t-10.5 -16q-2 -1 -0.5 -3.5t4.5 -4.5q1 -1 3 -1l3 -1.5t1 -2.5q-2 -5 -11 -5q-15 -1 -23.5 12t-4.5 29q3 13 6 27.5t6.5 32l5.5 27.5q2 9 -11 22q-30 25 -29 54v2q1 2 5.5 8t5.5 9t1 7.5t-5 7.5t-15 5q-7 2 -21 13 t-24 13q-34 6 -41 25q-3 5 -5 5q-49 22 -62 74q-8 -38 -8 -73q0 -145 102.5 -247.5t247.5 -102.5z" />
<glyph unicode="&#x2014;" d="M800 350h-600l300 351z" />
<glyph unicode="&#x2020;" d="M321 642l18 97q155 -29 262 -136.5t138 -263.5l-98 -18q-24 127 -108.5 212t-211.5 109zM286 446l17 97q98 -16 160.5 -79t79.5 -161l-98 -18q-22 139 -159 161zM250 250l18 98q31 -5 53 -27t27 -53z" />
<glyph unicode="&#x2022;" d="M400 700h-300v100h400zM899 500q0 -15 -1 -22q-2 -9 7 -16l50 -32q-9 -34 -25 -61l-58 13q-11 2 -17 -6q-13 -18 -31 -31q-8 -6 -6 -17l13 -58q-31 -18 -61 -26l-32 51q-7 9 -16 7q-4 0 -11 -0.5t-11 -0.5q-15 0 -22 1q-9 2 -16 -7l-32 -51q-34 9 -61 25l13 59 q2 11 -6 17q-18 13 -31 31q-6 8 -17 6l-59 -13q-16 27 -25 60l51 33q9 7 7 16q-1 7 -1 22t1 22q2 9 -7 16l-51 32q9 34 25 61l59 -13q11 -2 17 6q13 18 31 31q8 6 6 17l-13 59q27 16 61 25l32 -51q5 -9 16 -7q7 1 22 1t22 -1q9 -2 16 7l32 51q30 -8 61 -26l-13 -58 q-2 -11 6 -17q18 -13 31 -31q6 -8 17 -6l58 13q16 -27 25 -61l-50 -32q-9 -7 -7 -16q1 -7 1 -22zM699 400q42 0 71.5 29.5t29.5 70.5t-29.5 70.5t-71.5 29.5q-41 0 -70.5 -29.5t-29.5 -70.5t29.5 -70.5t70.5 -29.5zM350 450h-250v100h250v-100zM500 200h-400v100h300z" />
<glyph unicode="&#x2026;" d="M409 825l40 -30q-91 -13 -163.5 -69t-107.5 -139l-17 38q-15 31 -10 66t28 61q42 48 101 82q31 17 66 15t63 -24zM820 752q23 -26 28 -61t-9 -66l-18 -38q-35 83 -107.5 139t-163.5 69l41 30q28 22 62.5 24t65.5 -15q59 -34 101 -82zM500 750q124 0 212 -88t88 -212 q0 -70 -30.5 -131t-82.5 -103l12 -40q-3 -14 -16 -22q-7 -4 -27 -4l-27 30q-62 -30 -129 -30q-68 0 -130 30l-28 -30q-20 0 -27 4q-13 8 -16 22l13 40q-52 42 -82 103t-30 131q0 124 88 212t212 88zM500 250q82 0 141 59t59 141t-59 141t-141 59q-83 0 -141.5 -58.5 t-58.5 -141.5t58.5 -141.5t141.5 -58.5zM537 599l13 -137q0 -26 -18.5 -44.5t-44.5 -18.5l-87 13v37l87 13l13 137h37z" />
<glyph unicode="&#x2206;" d="M551 175v250q-80 4 -148.5 -3.5t-116.5 -24t-87 -39t-62.5 -48.5t-41.5 -52t-26 -50t-12.5 -42.5t-4.5 -29.5l-1 -11q-1 7 -1.5 18.5t1.5 47t7.5 70t20.5 81t37 86t61 79t89 66t123.5 41.5t161.5 11v250l400 -350z" />
<glyph unicode="&#x221a;" d="M500 950q122 0 226 -60t164 -164t60 -226t-60 -226t-164 -164t-226 -60t-226 60t-164 164t-60 226t60 226t164 164t226 60zM500 150q134 0 233 89t114 220q-11 26 -19 36q-4 4 -8 6t-6.5 2.5t-8 0t-7.5 -0.5q-5 0 -6 -2t0.5 -5.5t0.5 -4.5q-5 -9 -12.5 -14.5t-21 -10.5 t-17.5 -7h-3t-3 -1t-1 -3h9q2 0 5.5 1.5t6 1.5t4.5 -3q1 -4 1 -5.5t-2 -5.5l-3 -6q-3 -7 -8 -12.5t-12.5 -11.5t-10.5 -10q-11 -13 -5 -27q8 -23 -11 -35q-6 -4 -8 -16.5t-7 -17.5q-2 -2 -8 -9.5t-11 -11.5t-12 -5q-18 -4 -27 3.5t-14 29.5q-1 5 -4.5 14t-5 14.5t-1.5 13.5 t3 16q4 8 -9 25q-5 8 -6 11q0 2 1.5 7t-0.5 8t-10 4q-2 0 -10 2.5t-14 0.5q-40 -12 -63 24q-5 8 0 31.5t14 30.5q5 3 10.5 13t10.5 13q5 4 -2 6q-4 2 -5.5 5t-1.5 5t1 7t1 6q1 6 17 6q4 0 5.5 0.5t2.5 2t0.5 3.5t-2.5 7q-6 18 -22 13q-4 0 -4 4q-1 10 16 24q11 11 17 -6 q5 -12 15 -15q7 -2 17 6q3 3 -3 14q-11 13 2 19q8 4 21.5 13.5t25 14.5t24.5 2q11 2 27.5 -3t22.5 -5q41 -3 81 3q5 0 8 1q-47 80 -127 127t-175 47q-86 0 -160 -39t-123 -106q5 -5 12 -4h3q5 1 2 4q-1 1 -3 2q-3 4 0 5.5t7 1.5q9 1 23 -10q-3 3 2 3q3 1 5 0q7 -2 35 -8 t45.5 -12t32.5 -16q2 -1 6 -2q7 -4 7 -7q-2 -7 -16 -16q-1 -1 -5 -2q-5 -2 -4 -5q1 -4 5 -1.5t5 1.5q25 -12 37 -30l2 -5q3 -4 5 -6q6 -4 3 -7q-1 -1 -3 -1q-9 1 -25 -9t-28 -5q-2 1 -4.5 0t-4 -3t-3 -5t-2.5 -4q-3 -5 -13.5 -13.5t-15.5 -16.5t-2 -20q0 -7 -4 -7 q-3 -1 -8 6q-5 9 -11.5 10t-16.5 -1.5t-13 -2.5q-4 0 -6.5 -2t-3.5 -4.5t-2 -7.5q-3 -11 7 -19q6 -5 15 4q6 6 15 3q3 -2 2 -7l-1 -4q9 -9 21 -33q1 -1 9 1q6 0 19.5 4t22.5 2q34 -5 73 -41q5 -4 12 -7.5t17 -6.5t14 -5q16 -6 9 -17q-6 -8 -20 -46q-2 -5 -5 -7 q-16 -5 -32.5 -27.5t-24.5 -28.5q-2 -2 -9 -5t-11.5 -7t-7.5 -9q-2 -3 -5.5 -15t-10.5 -16q-2 -1 -0.5 -3.5t4.5 -4.5q1 -1 3 -1l3 -1.5t1 -2.5q-2 -5 -11 -5q-15 -1 -23.5 12t-4.5 29q3 13 6 27.5t6.5 32l5.5 27.5q2 9 -11 22q-30 25 -29 54v2q1 2 5.5 8t5.5 9t1 7.5 t-5 7.5t-15 5q-7 2 -21 13t-24 13q-34 6 -41 25q-3 5 -5 5q-22 10 -39 30.5t-23 44.5q-8 -38 -8 -74q0 -145 102.5 -247.5t247.5 -102.5zM539 699q-2 -20 -24 -29q-2 -1 -41 -13q-8 -2 -12 -7q-16 -22 -37 -1q-8 9 -14 27q-4 21 -33 21h-13q-11 3 -12 8q0 2 1.5 2.5t4.5 1 t4 1.5q4 2 13.5 9.5t16.5 11t16 2.5q6 -1 11.5 0.5t12 6t8.5 5.5q9 5 20 6t18.5 0.5t21 -2.5t18.5 -3q1 0 6 -7q7 -18 20 -7q7 5 12 -2q3 -5 -5 -10q-10 -6 -13 -21zM749 364q4 4 7 0t2 -8q0 -14 -12 -38q-4 -7 -10 -4q-6 4 -6 25q-2 6 1 10t9.5 8t8.5 7z" />
<glyph unicode="&#x221e;" d="M885 885q15 -13 15 -35v-700q0 -21 -14.5 -35.5t-35.5 -14.5h-700q-21 0 -35.5 14.5t-14.5 35.5v700q0 21 14.5 35.5t35.5 14.5h700q22 0 35 -15zM675 800h-350q-11 0 -18 -7t-7 -18t7 -18t18 -7h350q11 0 18 7t7 18t-7 18t-18 7zM150 200h700q-22 111 -34.5 223.5 t-13.5 169.5l-2 57h-600q0 -200 -50 -450zM400 550h-100v-100h100v100zM550 550h-100v-100h100v100zM700 550h-100v-100h100v100zM400 400h-100v-100h100v100zM550 400h-100v-100h100v100zM700 400h-100v-100h100v100z" />
<glyph unicode="&#x222b;" d="M125 625q-52 0 -88.5 -36.5t-36.5 -88.5t36.5 -88.5t88.5 -36.5t88.5 36.5t36.5 88.5t-36.5 88.5t-88.5 36.5zM500 625q-52 0 -88.5 -36.5t-36.5 -88.5t36.5 -88.5t88.5 -36.5t88.5 36.5t36.5 88.5t-36.5 88.5t-88.5 36.5zM875 625q-52 0 -88.5 -36.5t-36.5 -88.5 t36.5 -88.5t88.5 -36.5t88.5 36.5t36.5 88.5t-36.5 88.5t-88.5 36.5z" />
<glyph unicode="&#x2260;" d="M200 500q0 -104 73 -177t177 -73q23 0 50 5v-101q-32 -4 -50 -4q-145 0 -247.5 102.5t-102.5 247.5t102.5 247.5t247.5 102.5q131 0 229.5 -86t116.5 -214h-101q-17 86 -86 143t-159 57q-104 0 -177 -73t-73 -177zM488 700l12 -188q0 -26 -18.5 -44t-44.5 -18l-137 13v37 l138 13l12 187h38zM893 493q7 -9 7 -18v-300q0 -11 -7 -18t-18 -7h-300q-11 0 -18 7t-7 18v300q0 11 7 18t18 7h300q9 0 18 -7zM825 450h-200q-11 0 -18 -7t-7 -18t7 -18t18 -7h200q11 0 18 7t7 18t-7 18t-18 7zM575 200h300q-11 33 -17.5 70.5t-7.5 58.5v21h-250 q0 -75 -25 -150zM650 300h50v-50h-50v50zM750 300h50v-50h-50v50z" />
<glyph unicode="&#x25fc;" horiz-adv-x="750" d="M0 750h750v-750h-750v750z" />
</font>
</defs>
</svg>
